<svg xmlns="http://www.w3.org/2000/svg" viewBox="0 0 345.79 35.72"><defs><style>.cls-1{fill:#fff;}.cls-2{fill:#ff4800;}</style></defs><g id="Camada_2" data-name="Camada 2"><g id="Camada_1-2" data-name="Camada 1"><path class="cls-1" d="M22.51,2.07h0a7.07,7.07,0,0,1,10,0L49.35,18.91a2.26,2.26,0,0,0,1.41.67A2.12,2.12,0,0,0,52.4,19l9.11-9.11a7.07,7.07,0,0,1,10,0h0L57.4,24a9.14,9.14,0,0,1-6.65,2.69,9.42,9.42,0,0,1-6.47-2.81Z"/><path class="cls-2" d="M0,23.47,12.14,11.33a9.19,9.19,0,0,1,13,0L47,33.22h0a7.07,7.07,0,0,1-10,0L20.14,16.33a2.14,2.14,0,0,0-3,0L10,23.47a7.07,7.07,0,0,1-10,0Z"/><path class="cls-1" d="M97.87,9.73c1-.12,2-.22,3.13-.31s2.3-.12,3.63-.12q6.72,0,10.22,3.34t3.5,10q0,6.72-3.55,9.89t-10.57,3.16c-1.2,0-2.32,0-3.34-.12s-2-.19-3-.31Zm5.23,21.44.81.07c.34,0,.74,0,1.21,0a11.72,11.72,0,0,0,3-.38,5.43,5.43,0,0,0,2.44-1.37,6.93,6.93,0,0,0,1.64-2.66,13,13,0,0,0,.6-4.31,13,13,0,0,0-.6-4.26,7,7,0,0,0-1.64-2.71,5.89,5.89,0,0,0-2.36-1.4,9.73,9.73,0,0,0-2.83-.41l-1.16,0a9.12,9.12,0,0,0-1.15.09Z"/><path class="cls-1" d="M129.77,9.73a15.27,15.27,0,0,1,2.59-.22,15.91,15.91,0,0,1,2.63.22V35.29a15.71,15.71,0,0,1-2.59.22,15.47,15.47,0,0,1-2.63-.22Z"/><path class="cls-1" d="M147.79,9.73a17.61,17.61,0,0,1,2.74-.22,16.61,16.61,0,0,1,2.74.22l5.87,14.65,6-14.65a12.43,12.43,0,0,1,2.46-.22,14.52,14.52,0,0,1,2.59.22l1.21,25.56a15.54,15.54,0,0,1-2.56.22,12.62,12.62,0,0,1-2.38-.22l-.64-17.35-5.19,12c-.34.05-.68.09-1,.12a9.73,9.73,0,0,1-1.07.06c-.31,0-.62,0-.93,0a7.18,7.18,0,0,1-1-.14l-4.83-12.27-.5,17.6a11.32,11.32,0,0,1-2.2.22,12.78,12.78,0,0,1-2.35-.22Z"/><path class="cls-1" d="M183.25,9.73a15.27,15.27,0,0,1,2.59-.22,15.91,15.91,0,0,1,2.63.22V35.29a15.71,15.71,0,0,1-2.59.22,15.47,15.47,0,0,1-2.63-.22Z"/><path class="cls-1" d="M200.56,9.73a10.57,10.57,0,0,1,2.1-.22,11.42,11.42,0,0,1,2.21.22L214.75,26V9.73a14.22,14.22,0,0,1,2.46-.22,10,10,0,0,1,2.13.22V35.29a10.73,10.73,0,0,1-2.06.22,11.48,11.48,0,0,1-2.17-.22L205.15,19V35.29a11.9,11.9,0,0,1-2.31.22,11.45,11.45,0,0,1-2.28-.22Z"/><path class="cls-1" d="M231.29,9.73c.45-.07.89-.12,1.31-.15s.87,0,1.32,0l1.24,0q.65,0,1.32.15V23a35.89,35.89,0,0,0,.16,3.72,8,8,0,0,0,.64,2.56,3.23,3.23,0,0,0,1.35,1.49,4.65,4.65,0,0,0,2.26.48,4.57,4.57,0,0,0,2.24-.48,3.24,3.24,0,0,0,1.33-1.49,7.79,7.79,0,0,0,.64-2.56,35.89,35.89,0,0,0,.16-3.72V9.73q.72-.11,1.35-.15l1.25,0,1.3,0c.44,0,.88.08,1.33.15V24.09a24,24,0,0,1-.43,4.75,9.19,9.19,0,0,1-1.53,3.68,7.16,7.16,0,0,1-2.95,2.37,13.67,13.67,0,0,1-9.38,0,7.26,7.26,0,0,1-3-2.37,9.48,9.48,0,0,1-1.53-3.68,24.84,24.84,0,0,1-.42-4.75Z"/><path class="cls-1" d="M274.14,9.73c-.55-.07-1.05-.13-1.5-.16s-.91-.06-1.38-.06-1.05,0-1.5.06-.92.09-1.42.16l-8.07,25.56a14.93,14.93,0,0,0,2.59.22,14.22,14.22,0,0,0,2.46-.22l1.46-5.12h0l1.22-4.3h0l3.1-10.74,1.27,4.63,3.29,11.85,1,3.68a15.14,15.14,0,0,0,2.63.22,18.62,18.62,0,0,0,2.85-.22Z"/><path class="cls-2" d="M295.94,9.73a8.11,8.11,0,0,1,1-.11c.36,0,.71,0,1.05,0s.69,0,1.08,0a7.26,7.26,0,0,1,1,.11l6.61,16,6.65-16a6.16,6.16,0,0,1,.89-.11c.36,0,.7,0,1,0s.65,0,1,0a7.11,7.11,0,0,1,1,.11l1.21,25.56a8,8,0,0,1-.87.11c-.29,0-.6,0-.91,0s-.6,0-.9,0a6.85,6.85,0,0,1-.84-.11l-.81-19.87L307.82,30a10,10,0,0,1-1.46.1A8.76,8.76,0,0,1,305,30L299,15.31l-.82,20a6.88,6.88,0,0,1-.81.11c-.29,0-.56,0-.82,0s-.61,0-.89,0a7,7,0,0,1-.82-.11Z"/><path class="cls-2" d="M345.79,33.74a1.54,1.54,0,0,1-1.55,1.55H331.46a7.67,7.67,0,0,1-.09-.78c0-.28,0-.55,0-.82a10.77,10.77,0,0,1,.1-1.56h10.71V23.38h-8.32a5.63,5.63,0,0,1-.11-.78c0-.28,0-.56,0-.82s0-.53,0-.8a5.55,5.55,0,0,1,.11-.76h8.32V12.89H331.75a4.52,4.52,0,0,1-.09-.78c0-.29,0-.56,0-.82a10.6,10.6,0,0,1,.11-1.56h12.49a1.54,1.54,0,0,1,1.55,1.55Z"/></g></g></svg>