<svg xmlns="http://www.w3.org/2000/svg" xmlns:xlink="http://www.w3.org/1999/xlink" width="1024" zoomAndPan="magnify" viewBox="0 0 768 299.999988" height="400" preserveAspectRatio="xMidYMid meet" version="1.0"><defs><g/><clipPath id="id1"><path d="M 11 75.402344 L 203 75.402344 L 203 166 L 11 166 Z M 11 75.402344 " clip-rule="nonzero"/></clipPath><clipPath id="id2"><path d="M 0 189 L 220.5 189 L 220.5 221.652344 L 0 221.652344 Z M 0 189 " clip-rule="nonzero"/></clipPath><clipPath id="id3"><path d="M 0 189 L 220.5 189 L 220.5 204 L 0 204 Z M 0 189 " clip-rule="nonzero"/></clipPath><clipPath id="id4"><path d="M 32 215 L 162 215 L 162 221.652344 L 32 221.652344 Z M 32 215 " clip-rule="nonzero"/></clipPath></defs><g clip-path="url(#id1)"><path fill="#b7dbdc" d="M 202.925781 165.242188 L 11.9375 165.242188 L 11.9375 144.820312 L 29.636719 144.820312 L 29.636719 105.695312 L 51.070312 105.695312 L 51.070312 114.941406 L 69.011719 114.941406 L 69.011719 75.429688 L 94.679688 75.429688 L 94.679688 114.941406 L 113.125 114.941406 L 113.125 136.582031 L 132.316406 136.582031 L 132.316406 83.730469 L 152.753906 83.730469 L 152.753906 127.558594 L 169.949219 127.558594 L 169.949219 142.167969 L 181.660156 142.167969 L 181.660156 107.925781 L 202.925781 107.925781 L 202.925781 165.242188 " fill-opacity="1" fill-rule="nonzero"/></g><path fill="#65ccd5" d="M 185.234375 161.394531 L 185.234375 122.265625 L 163.796875 122.265625 L 163.796875 131.511719 L 145.855469 131.511719 L 145.855469 92.003906 L 120.1875 92.003906 L 120.1875 131.511719 L 101.742188 131.511719 L 101.742188 153.152344 L 82.550781 153.152344 L 82.550781 100.300781 L 62.117188 100.300781 L 62.117188 144.125 L 44.917969 144.125 L 44.917969 158.734375 L 33.207031 158.734375 L 33.207031 124.496094 L 11.9375 124.496094 L 11.9375 181.8125 L 202.925781 181.8125 L 202.925781 161.394531 L 185.234375 161.394531 " fill-opacity="1" fill-rule="nonzero"/><path fill="#50aeb5" d="M 18.167969 140.96875 L 14.015625 140.96875 L 14.015625 128.796875 L 18.167969 128.796875 L 18.167969 140.96875 " fill-opacity="1" fill-rule="nonzero"/><path fill="#50aeb5" d="M 24.648438 140.96875 L 20.496094 140.96875 L 20.496094 128.796875 L 24.648438 128.796875 L 24.648438 140.96875 " fill-opacity="1" fill-rule="nonzero"/><path fill="#50aeb5" d="M 31.128906 140.96875 L 26.976562 140.96875 L 26.976562 128.796875 L 31.128906 128.796875 L 31.128906 140.96875 " fill-opacity="1" fill-rule="nonzero"/><path fill="#50aeb5" d="M 18.167969 157.679688 L 14.015625 157.679688 L 14.015625 145.507812 L 18.167969 145.507812 L 18.167969 157.679688 " fill-opacity="1" fill-rule="nonzero"/><path fill="#50aeb5" d="M 24.648438 157.679688 L 20.496094 157.679688 L 20.496094 145.507812 L 24.648438 145.507812 L 24.648438 157.679688 " fill-opacity="1" fill-rule="nonzero"/><path fill="#50aeb5" d="M 31.128906 157.679688 L 26.976562 157.679688 L 26.976562 145.507812 L 31.128906 145.507812 L 31.128906 157.679688 " fill-opacity="1" fill-rule="nonzero"/><path fill="#50aeb5" d="M 18.167969 174.394531 L 14.015625 174.394531 L 14.015625 162.21875 L 18.167969 162.21875 L 18.167969 174.394531 " fill-opacity="1" fill-rule="nonzero"/><path fill="#50aeb5" d="M 24.648438 174.394531 L 20.496094 174.394531 L 20.496094 162.21875 L 24.648438 162.21875 L 24.648438 174.394531 " fill-opacity="1" fill-rule="nonzero"/><path fill="#50aeb5" d="M 31.128906 174.394531 L 26.976562 174.394531 L 26.976562 162.21875 L 31.128906 162.21875 L 31.128906 174.394531 " fill-opacity="1" fill-rule="nonzero"/><path fill="#50aeb5" d="M 35.824219 165.097656 L 32.789062 165.097656 L 32.789062 162.773438 L 35.824219 162.773438 L 35.824219 165.097656 " fill-opacity="1" fill-rule="nonzero"/><path fill="#50aeb5" d="M 40.164062 165.097656 L 37.128906 165.097656 L 37.128906 162.773438 L 40.164062 162.773438 L 40.164062 165.097656 " fill-opacity="1" fill-rule="nonzero"/><path fill="#50aeb5" d="M 44.503906 165.097656 L 41.464844 165.097656 L 41.464844 162.773438 L 44.503906 162.773438 L 44.503906 165.097656 " fill-opacity="1" fill-rule="nonzero"/><path fill="#50aeb5" d="M 35.824219 169.964844 L 32.789062 169.964844 L 32.789062 167.640625 L 35.824219 167.640625 L 35.824219 169.964844 " fill-opacity="1" fill-rule="nonzero"/><path fill="#50aeb5" d="M 40.164062 169.964844 L 37.128906 169.964844 L 37.128906 167.640625 L 40.164062 167.640625 L 40.164062 169.964844 " fill-opacity="1" fill-rule="nonzero"/><path fill="#50aeb5" d="M 44.503906 169.964844 L 41.464844 169.964844 L 41.464844 167.640625 L 44.503906 167.640625 L 44.503906 169.964844 " fill-opacity="1" fill-rule="nonzero"/><path fill="#50aeb5" d="M 35.824219 174.835938 L 32.789062 174.835938 L 32.789062 172.511719 L 35.824219 172.511719 L 35.824219 174.835938 " fill-opacity="1" fill-rule="nonzero"/><path fill="#50aeb5" d="M 40.164062 174.835938 L 37.128906 174.835938 L 37.128906 172.511719 L 40.164062 172.511719 L 40.164062 174.835938 " fill-opacity="1" fill-rule="nonzero"/><path fill="#50aeb5" d="M 44.503906 174.835938 L 41.464844 174.835938 L 41.464844 172.511719 L 44.503906 172.511719 L 44.503906 174.835938 " fill-opacity="1" fill-rule="nonzero"/><path fill="#50aeb5" d="M 66.4375 132.007812 L 64.609375 132.007812 L 64.609375 104.890625 L 66.4375 104.890625 L 66.4375 132.007812 " fill-opacity="1" fill-rule="nonzero"/><path fill="#50aeb5" d="M 70.921875 132.007812 L 69.09375 132.007812 L 69.09375 104.890625 L 70.921875 104.890625 L 70.921875 132.007812 " fill-opacity="1" fill-rule="nonzero"/><path fill="#50aeb5" d="M 75.410156 132.007812 L 73.578125 132.007812 L 73.578125 104.890625 L 75.410156 104.890625 L 75.410156 132.007812 " fill-opacity="1" fill-rule="nonzero"/><path fill="#50aeb5" d="M 79.890625 132.007812 L 78.066406 132.007812 L 78.066406 104.890625 L 79.890625 104.890625 L 79.890625 132.007812 " fill-opacity="1" fill-rule="nonzero"/><path fill="#50aeb5" d="M 66.4375 164.652344 L 64.609375 164.652344 L 64.609375 137.539062 L 66.4375 137.539062 L 66.4375 164.652344 " fill-opacity="1" fill-rule="nonzero"/><path fill="#50aeb5" d="M 70.921875 164.652344 L 69.09375 164.652344 L 69.09375 137.539062 L 70.921875 137.539062 L 70.921875 164.652344 " fill-opacity="1" fill-rule="nonzero"/><path fill="#50aeb5" d="M 75.410156 164.652344 L 73.578125 164.652344 L 73.578125 137.539062 L 75.410156 137.539062 L 75.410156 164.652344 " fill-opacity="1" fill-rule="nonzero"/><path fill="#50aeb5" d="M 79.890625 164.652344 L 78.066406 164.652344 L 78.066406 137.539062 L 79.890625 137.539062 L 79.890625 164.652344 " fill-opacity="1" fill-rule="nonzero"/><path fill="#50aeb5" d="M 50.152344 152.925781 L 46.746094 152.925781 L 46.746094 148.386719 L 50.152344 148.386719 L 50.152344 152.925781 " fill-opacity="1" fill-rule="nonzero"/><path fill="#50aeb5" d="M 55.882812 152.925781 L 52.476562 152.925781 L 52.476562 148.386719 L 55.882812 148.386719 L 55.882812 152.925781 " fill-opacity="1" fill-rule="nonzero"/><path fill="#50aeb5" d="M 61.617188 152.925781 L 58.210938 152.925781 L 58.210938 148.386719 L 61.617188 148.386719 L 61.617188 152.925781 " fill-opacity="1" fill-rule="nonzero"/><path fill="#50aeb5" d="M 50.152344 160.117188 L 46.746094 160.117188 L 46.746094 155.578125 L 50.152344 155.578125 L 50.152344 160.117188 " fill-opacity="1" fill-rule="nonzero"/><path fill="#50aeb5" d="M 55.882812 160.117188 L 52.476562 160.117188 L 52.476562 155.578125 L 55.882812 155.578125 L 55.882812 160.117188 " fill-opacity="1" fill-rule="nonzero"/><path fill="#50aeb5" d="M 61.617188 160.117188 L 58.210938 160.117188 L 58.210938 155.578125 L 61.617188 155.578125 L 61.617188 160.117188 " fill-opacity="1" fill-rule="nonzero"/><path fill="#50aeb5" d="M 50.152344 167.3125 L 46.746094 167.3125 L 46.746094 162.773438 L 50.152344 162.773438 L 50.152344 167.3125 " fill-opacity="1" fill-rule="nonzero"/><path fill="#50aeb5" d="M 55.882812 167.3125 L 52.476562 167.3125 L 52.476562 162.773438 L 55.882812 162.773438 L 55.882812 167.3125 " fill-opacity="1" fill-rule="nonzero"/><path fill="#50aeb5" d="M 61.617188 167.3125 L 58.210938 167.3125 L 58.210938 162.773438 L 61.617188 162.773438 L 61.617188 167.3125 " fill-opacity="1" fill-rule="nonzero"/><path fill="#50aeb5" d="M 50.152344 174.503906 L 46.746094 174.503906 L 46.746094 169.964844 L 50.152344 169.964844 L 50.152344 174.503906 " fill-opacity="1" fill-rule="nonzero"/><path fill="#50aeb5" d="M 55.882812 174.503906 L 52.476562 174.503906 L 52.476562 169.964844 L 55.882812 169.964844 L 55.882812 174.503906 " fill-opacity="1" fill-rule="nonzero"/><path fill="#50aeb5" d="M 61.617188 174.503906 L 58.210938 174.503906 L 58.210938 169.964844 L 61.617188 169.964844 L 61.617188 174.503906 " fill-opacity="1" fill-rule="nonzero"/><path fill="#50aeb5" d="M 101.492188 158.457031 L 83.382812 158.457031 L 83.382812 156.351562 L 101.492188 156.351562 L 101.492188 158.457031 " fill-opacity="1" fill-rule="nonzero"/><path fill="#50aeb5" d="M 101.492188 162.773438 L 83.382812 162.773438 L 83.382812 160.667969 L 101.492188 160.667969 L 101.492188 162.773438 " fill-opacity="1" fill-rule="nonzero"/><path fill="#50aeb5" d="M 101.492188 167.089844 L 83.382812 167.089844 L 83.382812 164.984375 L 101.492188 164.984375 L 101.492188 167.089844 " fill-opacity="1" fill-rule="nonzero"/><path fill="#50aeb5" d="M 101.492188 171.40625 L 83.382812 171.40625 L 83.382812 169.300781 L 101.492188 169.300781 L 101.492188 171.40625 " fill-opacity="1" fill-rule="nonzero"/><path fill="#50aeb5" d="M 101.492188 175.71875 L 83.382812 175.71875 L 83.382812 173.617188 L 101.492188 173.617188 L 101.492188 175.71875 " fill-opacity="1" fill-rule="nonzero"/><path fill="#50aeb5" d="M 124.503906 113.523438 L 122.347656 113.523438 L 122.347656 97.808594 L 124.503906 97.808594 L 124.503906 113.523438 " fill-opacity="1" fill-rule="nonzero"/><path fill="#50aeb5" d="M 128.328125 113.523438 L 126.167969 113.523438 L 126.167969 97.808594 L 128.328125 97.808594 L 128.328125 113.523438 " fill-opacity="1" fill-rule="nonzero"/><path fill="#50aeb5" d="M 132.148438 113.523438 L 129.988281 113.523438 L 129.988281 97.808594 L 132.148438 97.808594 L 132.148438 113.523438 " fill-opacity="1" fill-rule="nonzero"/><path fill="#50aeb5" d="M 135.96875 113.523438 L 133.808594 113.523438 L 133.808594 97.808594 L 135.96875 97.808594 L 135.96875 113.523438 " fill-opacity="1" fill-rule="nonzero"/><path fill="#50aeb5" d="M 139.789062 113.523438 L 137.632812 113.523438 L 137.632812 97.808594 L 139.789062 97.808594 L 139.789062 113.523438 " fill-opacity="1" fill-rule="nonzero"/><path fill="#50aeb5" d="M 143.613281 113.523438 L 141.453125 113.523438 L 141.453125 97.808594 L 143.613281 97.808594 L 143.613281 113.523438 " fill-opacity="1" fill-rule="nonzero"/><path fill="#50aeb5" d="M 124.503906 132.558594 L 122.347656 132.558594 L 122.347656 116.84375 L 124.503906 116.84375 L 124.503906 132.558594 " fill-opacity="1" fill-rule="nonzero"/><path fill="#50aeb5" d="M 128.328125 132.558594 L 126.167969 132.558594 L 126.167969 116.84375 L 128.328125 116.84375 L 128.328125 132.558594 " fill-opacity="1" fill-rule="nonzero"/><path fill="#50aeb5" d="M 132.148438 132.558594 L 129.988281 132.558594 L 129.988281 116.84375 L 132.148438 116.84375 L 132.148438 132.558594 " fill-opacity="1" fill-rule="nonzero"/><path fill="#50aeb5" d="M 135.96875 132.558594 L 133.808594 132.558594 L 133.808594 116.84375 L 135.96875 116.84375 L 135.96875 132.558594 " fill-opacity="1" fill-rule="nonzero"/><path fill="#50aeb5" d="M 139.789062 132.558594 L 137.632812 132.558594 L 137.632812 116.84375 L 139.789062 116.84375 L 139.789062 132.558594 " fill-opacity="1" fill-rule="nonzero"/><path fill="#50aeb5" d="M 143.613281 132.558594 L 141.453125 132.558594 L 141.453125 116.84375 L 143.613281 116.84375 L 143.613281 132.558594 " fill-opacity="1" fill-rule="nonzero"/><path fill="#50aeb5" d="M 124.503906 151.59375 L 122.347656 151.59375 L 122.347656 135.878906 L 124.503906 135.878906 L 124.503906 151.59375 " fill-opacity="1" fill-rule="nonzero"/><path fill="#50aeb5" d="M 128.328125 151.59375 L 126.167969 151.59375 L 126.167969 135.878906 L 128.328125 135.878906 L 128.328125 151.59375 " fill-opacity="1" fill-rule="nonzero"/><path fill="#50aeb5" d="M 132.148438 151.59375 L 129.988281 151.59375 L 129.988281 135.878906 L 132.148438 135.878906 L 132.148438 151.59375 " fill-opacity="1" fill-rule="nonzero"/><path fill="#50aeb5" d="M 135.96875 151.59375 L 133.808594 151.59375 L 133.808594 135.878906 L 135.96875 135.878906 L 135.96875 151.59375 " fill-opacity="1" fill-rule="nonzero"/><path fill="#50aeb5" d="M 139.789062 151.59375 L 137.632812 151.59375 L 137.632812 135.878906 L 139.789062 135.878906 L 139.789062 151.59375 " fill-opacity="1" fill-rule="nonzero"/><path fill="#50aeb5" d="M 143.613281 151.59375 L 141.453125 151.59375 L 141.453125 135.878906 L 143.613281 135.878906 L 143.613281 151.59375 " fill-opacity="1" fill-rule="nonzero"/><path fill="#50aeb5" d="M 124.503906 170.632812 L 122.347656 170.632812 L 122.347656 154.914062 L 124.503906 154.914062 L 124.503906 170.632812 " fill-opacity="1" fill-rule="nonzero"/><path fill="#50aeb5" d="M 128.328125 170.632812 L 126.167969 170.632812 L 126.167969 154.914062 L 128.328125 154.914062 L 128.328125 170.632812 " fill-opacity="1" fill-rule="nonzero"/><path fill="#50aeb5" d="M 132.148438 170.632812 L 129.988281 170.632812 L 129.988281 154.914062 L 132.148438 154.914062 L 132.148438 170.632812 " fill-opacity="1" fill-rule="nonzero"/><path fill="#50aeb5" d="M 135.96875 170.632812 L 133.808594 170.632812 L 133.808594 154.914062 L 135.96875 154.914062 L 135.96875 170.632812 " fill-opacity="1" fill-rule="nonzero"/><path fill="#50aeb5" d="M 139.789062 170.632812 L 137.632812 170.632812 L 137.632812 154.914062 L 139.789062 154.914062 L 139.789062 170.632812 " fill-opacity="1" fill-rule="nonzero"/><path fill="#50aeb5" d="M 143.613281 170.632812 L 141.453125 170.632812 L 141.453125 154.914062 L 143.613281 154.914062 L 143.613281 170.632812 " fill-opacity="1" fill-rule="nonzero"/><path fill="#50aeb5" d="M 107.640625 141.445312 L 104.234375 141.445312 L 104.234375 136.90625 L 107.640625 136.90625 L 107.640625 141.445312 " fill-opacity="1" fill-rule="nonzero"/><path fill="#50aeb5" d="M 113.289062 141.445312 L 109.882812 141.445312 L 109.882812 136.90625 L 113.289062 136.90625 L 113.289062 141.445312 " fill-opacity="1" fill-rule="nonzero"/><path fill="#50aeb5" d="M 119.519531 141.445312 L 116.113281 141.445312 L 116.113281 136.90625 L 119.519531 136.90625 L 119.519531 141.445312 " fill-opacity="1" fill-rule="nonzero"/><path fill="#50aeb5" d="M 107.640625 149.191406 L 104.234375 149.191406 L 104.234375 144.652344 L 107.640625 144.652344 L 107.640625 149.191406 " fill-opacity="1" fill-rule="nonzero"/><path fill="#50aeb5" d="M 113.289062 149.191406 L 109.882812 149.191406 L 109.882812 144.652344 L 113.289062 144.652344 L 113.289062 149.191406 " fill-opacity="1" fill-rule="nonzero"/><path fill="#50aeb5" d="M 119.519531 149.191406 L 116.113281 149.191406 L 116.113281 144.652344 L 119.519531 144.652344 L 119.519531 149.191406 " fill-opacity="1" fill-rule="nonzero"/><path fill="#50aeb5" d="M 107.640625 156.9375 L 104.234375 156.9375 L 104.234375 152.398438 L 107.640625 152.398438 L 107.640625 156.9375 " fill-opacity="1" fill-rule="nonzero"/><path fill="#50aeb5" d="M 113.289062 156.9375 L 109.882812 156.9375 L 109.882812 152.398438 L 113.289062 152.398438 L 113.289062 156.9375 " fill-opacity="1" fill-rule="nonzero"/><path fill="#50aeb5" d="M 119.519531 156.9375 L 116.113281 156.9375 L 116.113281 152.398438 L 119.519531 152.398438 L 119.519531 156.9375 " fill-opacity="1" fill-rule="nonzero"/><path fill="#50aeb5" d="M 107.640625 164.683594 L 104.234375 164.683594 L 104.234375 160.148438 L 107.640625 160.148438 L 107.640625 164.683594 " fill-opacity="1" fill-rule="nonzero"/><path fill="#50aeb5" d="M 113.289062 164.683594 L 109.882812 164.683594 L 109.882812 160.148438 L 113.289062 160.148438 L 113.289062 164.683594 " fill-opacity="1" fill-rule="nonzero"/><path fill="#50aeb5" d="M 119.519531 164.683594 L 116.113281 164.683594 L 116.113281 160.148438 L 119.519531 160.148438 L 119.519531 164.683594 " fill-opacity="1" fill-rule="nonzero"/><path fill="#50aeb5" d="M 107.640625 172.433594 L 104.234375 172.433594 L 104.234375 167.894531 L 107.640625 167.894531 L 107.640625 172.433594 " fill-opacity="1" fill-rule="nonzero"/><path fill="#50aeb5" d="M 113.289062 172.433594 L 109.882812 172.433594 L 109.882812 167.894531 L 113.289062 167.894531 L 113.289062 172.433594 " fill-opacity="1" fill-rule="nonzero"/><path fill="#50aeb5" d="M 119.519531 172.433594 L 116.113281 172.433594 L 116.113281 167.894531 L 119.519531 167.894531 L 119.519531 172.433594 " fill-opacity="1" fill-rule="nonzero"/><path fill="#50aeb5" d="M 148.84375 142.1875 L 146.023438 142.1875 L 146.023438 135.878906 L 148.84375 135.878906 L 148.84375 142.1875 " fill-opacity="1" fill-rule="nonzero"/><path fill="#50aeb5" d="M 153.582031 142.1875 L 150.757812 142.1875 L 150.757812 135.878906 L 153.582031 135.878906 L 153.582031 142.1875 " fill-opacity="1" fill-rule="nonzero"/><path fill="#50aeb5" d="M 158.316406 142.1875 L 155.492188 142.1875 L 155.492188 135.878906 L 158.316406 135.878906 L 158.316406 142.1875 " fill-opacity="1" fill-rule="nonzero"/><path fill="#50aeb5" d="M 163.050781 142.1875 L 160.226562 142.1875 L 160.226562 135.878906 L 163.050781 135.878906 L 163.050781 142.1875 " fill-opacity="1" fill-rule="nonzero"/><path fill="#50aeb5" d="M 148.84375 151.59375 L 146.023438 151.59375 L 146.023438 145.285156 L 148.84375 145.285156 L 148.84375 151.59375 " fill-opacity="1" fill-rule="nonzero"/><path fill="#50aeb5" d="M 153.582031 151.59375 L 150.757812 151.59375 L 150.757812 145.285156 L 153.582031 145.285156 L 153.582031 151.59375 " fill-opacity="1" fill-rule="nonzero"/><path fill="#50aeb5" d="M 158.316406 151.59375 L 155.492188 151.59375 L 155.492188 145.285156 L 158.316406 145.285156 L 158.316406 151.59375 " fill-opacity="1" fill-rule="nonzero"/><path fill="#50aeb5" d="M 163.050781 151.59375 L 160.226562 151.59375 L 160.226562 145.285156 L 163.050781 145.285156 L 163.050781 151.59375 " fill-opacity="1" fill-rule="nonzero"/><path fill="#50aeb5" d="M 148.84375 161.003906 L 146.023438 161.003906 L 146.023438 154.695312 L 148.84375 154.695312 L 148.84375 161.003906 " fill-opacity="1" fill-rule="nonzero"/><path fill="#50aeb5" d="M 153.582031 161.003906 L 150.757812 161.003906 L 150.757812 154.695312 L 153.582031 154.695312 L 153.582031 161.003906 " fill-opacity="1" fill-rule="nonzero"/><path fill="#50aeb5" d="M 158.316406 161.003906 L 155.492188 161.003906 L 155.492188 154.695312 L 158.316406 154.695312 L 158.316406 161.003906 " fill-opacity="1" fill-rule="nonzero"/><path fill="#50aeb5" d="M 163.050781 161.003906 L 160.226562 161.003906 L 160.226562 154.695312 L 163.050781 154.695312 L 163.050781 161.003906 " fill-opacity="1" fill-rule="nonzero"/><path fill="#50aeb5" d="M 148.84375 170.410156 L 146.023438 170.410156 L 146.023438 164.101562 L 148.84375 164.101562 L 148.84375 170.410156 " fill-opacity="1" fill-rule="nonzero"/><path fill="#50aeb5" d="M 153.582031 170.410156 L 150.757812 170.410156 L 150.757812 164.101562 L 153.582031 164.101562 L 153.582031 170.410156 " fill-opacity="1" fill-rule="nonzero"/><path fill="#50aeb5" d="M 158.316406 170.410156 L 155.492188 170.410156 L 155.492188 164.101562 L 158.316406 164.101562 L 158.316406 170.410156 " fill-opacity="1" fill-rule="nonzero"/><path fill="#50aeb5" d="M 163.050781 170.410156 L 160.226562 170.410156 L 160.226562 164.101562 L 163.050781 164.101562 L 163.050781 170.410156 " fill-opacity="1" fill-rule="nonzero"/><path fill="#50aeb5" d="M 183.738281 128.851562 L 165.628906 128.851562 L 165.628906 126.527344 L 183.738281 126.527344 L 183.738281 128.851562 " fill-opacity="1" fill-rule="nonzero"/><path fill="#50aeb5" d="M 183.738281 134.164062 L 165.628906 134.164062 L 165.628906 131.839844 L 183.738281 131.839844 L 183.738281 134.164062 " fill-opacity="1" fill-rule="nonzero"/><path fill="#50aeb5" d="M 183.738281 139.476562 L 165.628906 139.476562 L 165.628906 137.152344 L 183.738281 137.152344 L 183.738281 139.476562 " fill-opacity="1" fill-rule="nonzero"/><path fill="#50aeb5" d="M 183.738281 144.789062 L 165.628906 144.789062 L 165.628906 142.464844 L 183.738281 142.464844 L 183.738281 144.789062 " fill-opacity="1" fill-rule="nonzero"/><path fill="#50aeb5" d="M 183.738281 150.101562 L 165.628906 150.101562 L 165.628906 147.777344 L 183.738281 147.777344 L 183.738281 150.101562 " fill-opacity="1" fill-rule="nonzero"/><path fill="#50aeb5" d="M 183.738281 155.414062 L 165.628906 155.414062 L 165.628906 153.089844 L 183.738281 153.089844 L 183.738281 155.414062 " fill-opacity="1" fill-rule="nonzero"/><path fill="#50aeb5" d="M 183.738281 160.726562 L 165.628906 160.726562 L 165.628906 158.402344 L 183.738281 158.402344 L 183.738281 160.726562 " fill-opacity="1" fill-rule="nonzero"/><path fill="#50aeb5" d="M 183.738281 166.039062 L 165.628906 166.039062 L 165.628906 163.714844 L 183.738281 163.714844 L 183.738281 166.039062 " fill-opacity="1" fill-rule="nonzero"/><path fill="#50aeb5" d="M 183.738281 171.347656 L 165.628906 171.347656 L 165.628906 169.027344 L 183.738281 169.027344 L 183.738281 171.347656 " fill-opacity="1" fill-rule="nonzero"/><path fill="#50aeb5" d="M 190.382812 170.410156 L 186.230469 170.410156 L 186.230469 164.875 L 190.382812 164.875 L 190.382812 170.410156 " fill-opacity="1" fill-rule="nonzero"/><path fill="#50aeb5" d="M 196.28125 170.410156 L 192.125 170.410156 L 192.125 164.875 L 196.28125 164.875 L 196.28125 170.410156 " fill-opacity="1" fill-rule="nonzero"/><path fill="#50aeb5" d="M 202.179688 170.410156 L 198.027344 170.410156 L 198.027344 164.875 L 202.179688 164.875 L 202.179688 170.410156 " fill-opacity="1" fill-rule="nonzero"/><path fill="#64a336" d="M 85.765625 148.652344 C 85.472656 153.015625 81.335938 156.5625 75.871094 156.5625 C 70.402344 156.5625 65.972656 153.019531 65.972656 148.652344 C 65.972656 143.359375 70.402344 131.3125 75.871094 131.3125 C 81.335938 131.3125 86.082031 143.9375 85.765625 148.652344 " fill-opacity="1" fill-rule="nonzero"/><path fill="#558235" d="M 78.53125 154.546875 C 73.0625 154.546875 68.632812 151.003906 68.632812 146.632812 C 68.632812 142.792969 70.96875 135.390625 74.335938 131.625 C 69.597656 133.546875 65.972656 143.859375 65.972656 148.652344 C 65.972656 153.019531 70.402344 156.5625 75.871094 156.5625 C 79.140625 156.5625 81.9375 155.292969 83.71875 153.335938 C 82.226562 154.101562 80.464844 154.546875 78.53125 154.546875 " fill-opacity="1" fill-rule="nonzero"/><path fill="#784824" d="M 80.117188 150.960938 L 80 151.007812 L 80 151.011719 C 80 151.011719 79.964844 151.09375 79.90625 151.226562 C 79.875 151.296875 79.84375 151.378906 79.800781 151.472656 C 79.757812 151.570312 79.695312 151.667969 79.632812 151.78125 C 79.601562 151.839844 79.570312 151.898438 79.535156 151.957031 C 79.5 152.019531 79.453125 152.078125 79.410156 152.140625 C 79.324219 152.261719 79.242188 152.394531 79.128906 152.519531 C 79.015625 152.644531 78.914062 152.78125 78.78125 152.902344 C 78.65625 153.03125 78.53125 153.15625 78.386719 153.273438 C 78.316406 153.332031 78.246094 153.394531 78.175781 153.449219 C 78.101562 153.507812 78.027344 153.558594 77.957031 153.617188 C 77.8125 153.730469 77.652344 153.824219 77.507812 153.921875 C 77.355469 154.011719 77.210938 154.105469 77.0625 154.179688 C 76.921875 154.257812 76.78125 154.332031 76.652344 154.390625 C 76.542969 154.441406 76.449219 154.488281 76.355469 154.523438 L 76.140625 151.230469 C 76.132812 151.125 76.027344 151.035156 75.890625 151.03125 C 75.742188 151.023438 75.621094 151.113281 75.609375 151.230469 L 75.488281 153.121094 L 75.484375 153.121094 C 75.410156 153.117188 75.320312 153.097656 75.222656 153.082031 C 75.128906 153.054688 75.023438 153.035156 74.917969 152.992188 C 74.808594 152.957031 74.707031 152.902344 74.59375 152.851562 C 74.539062 152.820312 74.492188 152.785156 74.4375 152.753906 C 74.378906 152.722656 74.328125 152.691406 74.277344 152.648438 C 74.179688 152.574219 74.074219 152.496094 73.988281 152.402344 L 73.851562 152.269531 L 73.730469 152.125 L 73.617188 151.980469 L 73.515625 151.832031 C 73.457031 151.730469 73.382812 151.640625 73.339844 151.542969 C 73.292969 151.449219 73.246094 151.355469 73.203125 151.273438 C 73.160156 151.191406 73.132812 151.113281 73.105469 151.042969 C 73.078125 150.972656 73.054688 150.910156 73.035156 150.859375 C 72.996094 150.757812 72.972656 150.699219 72.972656 150.699219 L 72.96875 150.695312 L 72.863281 150.648438 L 72.792969 150.730469 C 72.792969 150.730469 72.808594 150.792969 72.835938 150.898438 C 72.847656 150.953125 72.867188 151.015625 72.882812 151.09375 C 72.90625 151.164062 72.917969 151.25 72.957031 151.339844 C 72.988281 151.425781 73.023438 151.527344 73.0625 151.625 C 73.09375 151.734375 73.15625 151.835938 73.207031 151.945312 C 73.234375 152.003906 73.265625 152.054688 73.292969 152.113281 C 73.328125 152.167969 73.363281 152.226562 73.398438 152.277344 C 73.433594 152.335938 73.472656 152.390625 73.507812 152.449219 L 73.640625 152.609375 C 73.726562 152.71875 73.832031 152.820312 73.9375 152.917969 C 73.988281 152.96875 74.046875 153.015625 74.105469 153.058594 C 74.164062 153.097656 74.21875 153.144531 74.28125 153.183594 C 74.40625 153.257812 74.527344 153.335938 74.65625 153.390625 C 74.78125 153.453125 74.910156 153.496094 75.03125 153.539062 C 75.152344 153.570312 75.265625 153.605469 75.371094 153.621094 L 75.457031 153.632812 L 74.515625 167.960938 L 77.238281 167.960938 L 76.390625 155.03125 C 76.542969 154.960938 76.730469 154.871094 76.941406 154.757812 C 77.074219 154.683594 77.214844 154.597656 77.363281 154.507812 C 77.511719 154.417969 77.660156 154.316406 77.8125 154.210938 C 77.957031 154.097656 78.117188 153.992188 78.257812 153.863281 C 78.332031 153.804688 78.40625 153.742188 78.476562 153.675781 C 78.550781 153.613281 78.613281 153.546875 78.683594 153.480469 C 78.824219 153.351562 78.949219 153.210938 79.070312 153.070312 C 79.199219 152.933594 79.292969 152.785156 79.398438 152.652344 C 79.503906 152.515625 79.582031 152.371094 79.664062 152.242188 C 79.703125 152.171875 79.742188 152.109375 79.777344 152.046875 C 79.808594 151.980469 79.835938 151.917969 79.867188 151.859375 C 79.917969 151.738281 79.976562 151.632812 80.011719 151.53125 C 80.046875 151.433594 80.074219 151.34375 80.097656 151.273438 C 80.148438 151.128906 80.179688 151.050781 80.179688 151.050781 L 80.117188 150.960938 " fill-opacity="1" fill-rule="nonzero"/><path fill="#509b3a" d="M 98.273438 152.894531 C 98.070312 155.90625 95.210938 158.359375 91.433594 158.359375 C 87.65625 158.359375 84.597656 155.914062 84.597656 152.894531 C 84.597656 149.238281 87.65625 140.914062 91.433594 140.914062 C 95.210938 140.914062 98.488281 149.636719 98.273438 152.894531 " fill-opacity="1" fill-rule="nonzero"/><path fill="#447b38" d="M 93.273438 156.964844 C 89.496094 156.964844 86.433594 154.515625 86.433594 151.5 C 86.433594 148.847656 88.046875 143.734375 90.378906 141.128906 C 87.101562 142.457031 84.597656 149.585938 84.597656 152.894531 C 84.597656 155.914062 87.65625 158.359375 91.433594 158.359375 C 93.695312 158.359375 95.625 157.480469 96.855469 156.128906 C 95.828125 156.660156 94.605469 156.964844 93.273438 156.964844 " fill-opacity="1" fill-rule="nonzero"/><path fill="#784824" d="M 94.367188 154.488281 L 94.289062 154.519531 L 94.289062 154.523438 C 94.289062 154.523438 94.265625 154.578125 94.222656 154.671875 C 94.203125 154.71875 94.175781 154.777344 94.148438 154.84375 C 94.125 154.90625 94.074219 154.976562 94.03125 155.054688 L 93.964844 155.175781 L 93.882812 155.300781 C 93.820312 155.386719 93.761719 155.476562 93.683594 155.5625 C 93.609375 155.652344 93.535156 155.746094 93.445312 155.828125 C 93.359375 155.917969 93.269531 156.003906 93.171875 156.085938 L 93.027344 156.207031 L 92.875 156.320312 C 92.777344 156.398438 92.664062 156.464844 92.566406 156.53125 C 92.460938 156.59375 92.359375 156.660156 92.257812 156.710938 C 92.160156 156.765625 92.066406 156.816406 91.972656 156.859375 C 91.898438 156.890625 91.832031 156.925781 91.773438 156.949219 L 91.621094 154.675781 C 91.617188 154.601562 91.542969 154.539062 91.449219 154.535156 C 91.347656 154.53125 91.261719 154.59375 91.257812 154.675781 L 91.171875 155.980469 L 91.167969 155.980469 C 91.113281 155.976562 91.054688 155.964844 90.988281 155.953125 C 90.921875 155.933594 90.847656 155.917969 90.773438 155.890625 C 90.699219 155.867188 90.632812 155.828125 90.554688 155.792969 L 90.441406 155.726562 L 90.335938 155.652344 C 90.265625 155.601562 90.195312 155.546875 90.132812 155.484375 L 90.039062 155.394531 L 89.957031 155.292969 L 89.878906 155.191406 L 89.808594 155.089844 C 89.765625 155.019531 89.714844 154.957031 89.6875 154.890625 C 89.652344 154.824219 89.621094 154.761719 89.59375 154.703125 C 89.5625 154.648438 89.542969 154.59375 89.523438 154.542969 L 89.476562 154.417969 C 89.449219 154.347656 89.433594 154.308594 89.433594 154.308594 L 89.429688 154.304688 L 89.359375 154.269531 L 89.308594 154.328125 C 89.308594 154.328125 89.320312 154.371094 89.335938 154.445312 L 89.371094 154.578125 C 89.386719 154.628906 89.394531 154.6875 89.421875 154.746094 C 89.441406 154.808594 89.46875 154.878906 89.496094 154.949219 C 89.519531 155.019531 89.558594 155.089844 89.59375 155.167969 L 89.652344 155.285156 L 89.726562 155.398438 L 89.804688 155.515625 L 89.894531 155.625 C 89.953125 155.703125 90.027344 155.773438 90.101562 155.839844 L 90.214844 155.933594 L 90.335938 156.023438 C 90.425781 156.078125 90.503906 156.128906 90.597656 156.167969 C 90.679688 156.210938 90.769531 156.238281 90.855469 156.265625 C 90.9375 156.289062 91.015625 156.316406 91.089844 156.324219 L 91.148438 156.335938 L 90.5 166.230469 L 92.378906 166.230469 L 91.792969 157.300781 C 91.898438 157.253906 92.027344 157.1875 92.171875 157.109375 C 92.265625 157.058594 92.363281 157 92.46875 156.9375 C 92.570312 156.875 92.667969 156.804688 92.777344 156.734375 C 92.875 156.652344 92.988281 156.582031 93.082031 156.496094 L 93.238281 156.363281 L 93.378906 156.230469 C 93.476562 156.140625 93.5625 156.039062 93.644531 155.945312 C 93.730469 155.851562 93.800781 155.75 93.871094 155.65625 C 93.945312 155.5625 93.996094 155.460938 94.054688 155.371094 L 94.132812 155.238281 L 94.191406 155.109375 C 94.230469 155.027344 94.273438 154.953125 94.296875 154.882812 C 94.320312 154.816406 94.339844 154.753906 94.355469 154.703125 C 94.390625 154.605469 94.410156 154.550781 94.410156 154.550781 L 94.367188 154.488281 " fill-opacity="1" fill-rule="nonzero"/><path fill="#c2e46f" d="M 32.0625 183.25 C 32.0625 183.25 100.019531 136.023438 170.503906 183.25 L 32.0625 183.25 " fill-opacity="1" fill-rule="nonzero"/><path fill="#acdc58" d="M 87.746094 183.640625 C 87.746094 183.640625 146.1875 143.027344 206.804688 183.640625 L 87.746094 183.640625 " fill-opacity="1" fill-rule="nonzero"/><path fill="#97c847" d="M 6.804688 183.640625 C 6.804688 183.640625 52.949219 151.574219 100.808594 183.640625 L 6.804688 183.640625 " fill-opacity="1" fill-rule="nonzero"/><g clip-path="url(#id2)"><path fill="#84ce39" d="M 217.339844 189.347656 L 3.21875 189.347656 C 1.5625 189.347656 0.226562 190.683594 0.226562 192.335938 C 0.226562 193.984375 1.5625 195.324219 3.21875 195.324219 L 11.613281 195.324219 C 11.496094 195.660156 11.429688 196.027344 11.429688 196.410156 C 11.429688 196.902344 11.539062 197.363281 11.726562 197.769531 L 6.128906 197.769531 C 4.519531 197.769531 3.21875 199.109375 3.21875 200.757812 C 3.21875 202.410156 4.519531 203.75 6.128906 203.75 L 25.5625 203.75 C 24.214844 203.75 23.121094 205.085938 23.121094 206.738281 C 23.121094 208.390625 24.214844 209.726562 25.5625 209.726562 L 13.800781 209.726562 C 12.492188 209.726562 11.429688 211.066406 11.429688 212.714844 C 11.429688 214.367188 12.492188 215.707031 13.800781 215.707031 L 34.398438 215.707031 C 33.425781 215.707031 32.640625 217.042969 32.640625 218.691406 C 32.640625 220.34375 33.425781 221.683594 34.398438 221.683594 L 160.242188 221.683594 C 161.214844 221.683594 162 220.34375 162 218.691406 C 162 217.042969 161.214844 215.707031 160.242188 215.707031 L 183.640625 215.707031 C 184.949219 215.707031 186.015625 214.367188 186.015625 212.714844 C 186.015625 211.066406 184.949219 209.726562 183.640625 209.726562 L 200.160156 209.726562 C 201.507812 209.726562 202.601562 208.390625 202.601562 206.738281 C 202.601562 205.085938 201.507812 203.75 200.160156 203.75 L 214.429688 203.75 C 216.039062 203.75 217.339844 202.410156 217.339844 200.757812 C 217.339844 199.109375 216.039062 197.769531 214.429688 197.769531 L 208.832031 197.769531 C 209.019531 197.363281 209.128906 196.902344 209.128906 196.410156 C 209.128906 196.027344 209.0625 195.660156 208.941406 195.324219 L 217.339844 195.324219 C 218.992188 195.324219 220.332031 193.984375 220.332031 192.335938 C 220.332031 190.683594 218.992188 189.347656 217.339844 189.347656 " fill-opacity="1" fill-rule="nonzero"/></g><g clip-path="url(#id3)"><path fill="#7abb38" d="M 130.511719 203.75 L 6.128906 203.75 C 4.519531 203.75 3.21875 202.410156 3.21875 200.757812 C 3.21875 199.109375 4.519531 197.769531 6.128906 197.769531 L 11.726562 197.769531 C 11.539062 197.363281 11.429688 196.902344 11.429688 196.410156 C 11.429688 196.027344 11.496094 195.660156 11.613281 195.324219 L 3.21875 195.324219 C 1.5625 195.324219 0.226562 193.984375 0.226562 192.335938 C 0.226562 190.683594 1.5625 189.347656 3.21875 189.347656 L 217.339844 189.347656 C 218.992188 189.347656 220.332031 190.683594 220.332031 192.335938 C 220.332031 193.984375 218.992188 195.324219 217.339844 195.324219 L 170.238281 195.324219 C 169.984375 196.714844 168.765625 197.769531 167.300781 197.769531 L 130.511719 197.769531 C 131.480469 197.769531 132.269531 199.109375 132.269531 200.757812 C 132.269531 202.410156 131.480469 203.75 130.511719 203.75 " fill-opacity="1" fill-rule="nonzero"/></g><path fill="#64a336" d="M 43.613281 138.195312 C 43.046875 148.804688 34.996094 157.429688 24.367188 157.429688 C 13.734375 157.429688 5.121094 148.820312 5.121094 138.195312 C 5.121094 125.332031 13.734375 96.050781 24.367188 96.050781 C 34.996094 96.050781 44.226562 126.742188 43.613281 138.195312 " fill-opacity="1" fill-rule="nonzero"/><path fill="#558235" d="M 29.542969 152.523438 C 18.914062 152.523438 10.296875 143.914062 10.296875 133.289062 C 10.296875 123.953125 14.835938 105.972656 21.390625 96.808594 C 12.171875 101.480469 5.121094 126.554688 5.121094 138.195312 C 5.121094 148.820312 13.734375 157.429688 24.367188 157.429688 C 30.730469 157.429688 36.164062 154.339844 39.628906 149.582031 C 36.734375 151.441406 33.300781 152.523438 29.542969 152.523438 " fill-opacity="1" fill-rule="nonzero"/><path fill="#784824" d="M 32.628906 143.808594 C 32.535156 143.773438 32.433594 143.824219 32.402344 143.917969 L 32.398438 143.933594 C 32.398438 143.933594 32.335938 144.125 32.21875 144.457031 C 32.164062 144.625 32.09375 144.824219 32.015625 145.054688 C 31.9375 145.285156 31.804688 145.53125 31.6875 145.808594 C 31.628906 145.941406 31.5625 146.085938 31.496094 146.234375 C 31.429688 146.378906 31.335938 146.519531 31.257812 146.671875 C 31.082031 146.96875 30.925781 147.292969 30.703125 147.597656 C 30.488281 147.902344 30.289062 148.230469 30.03125 148.527344 C 29.789062 148.835938 29.542969 149.148438 29.261719 149.429688 C 29.125 149.570312 28.996094 149.722656 28.851562 149.859375 C 28.710938 149.996094 28.566406 150.128906 28.421875 150.261719 C 28.148438 150.539062 27.835938 150.765625 27.554688 151.007812 C 27.257812 151.230469 26.976562 151.449219 26.691406 151.636719 C 26.410156 151.828125 26.140625 152.003906 25.886719 152.152344 C 25.679688 152.273438 25.496094 152.378906 25.316406 152.472656 L 24.894531 144.464844 C 24.882812 144.207031 24.671875 143.992188 24.40625 143.976562 C 24.125 143.960938 23.882812 144.183594 23.867188 144.464844 L 23.625 149.0625 C 23.46875 149.050781 23.296875 149.003906 23.109375 148.960938 C 22.925781 148.898438 22.71875 148.847656 22.519531 148.746094 C 22.304688 148.664062 22.105469 148.523438 21.886719 148.402344 C 21.785156 148.332031 21.683594 148.246094 21.578125 148.167969 C 21.472656 148.09375 21.367188 148.011719 21.277344 147.914062 C 21.078125 147.726562 20.878906 147.539062 20.707031 147.3125 L 20.441406 146.988281 C 20.363281 146.871094 20.289062 146.753906 20.210938 146.636719 C 20.136719 146.519531 20.058594 146.402344 19.984375 146.289062 C 19.917969 146.164062 19.855469 146.042969 19.792969 145.925781 C 19.675781 145.683594 19.53125 145.460938 19.449219 145.222656 C 19.355469 144.992188 19.269531 144.773438 19.1875 144.570312 C 19.09375 144.371094 19.046875 144.175781 18.992188 144.007812 C 18.9375 143.835938 18.890625 143.6875 18.851562 143.566406 C 18.777344 143.320312 18.734375 143.179688 18.734375 143.179688 L 18.730469 143.164062 C 18.703125 143.078125 18.613281 143.027344 18.523438 143.046875 C 18.425781 143.066406 18.367188 143.15625 18.382812 143.253906 C 18.382812 143.253906 18.414062 143.402344 18.46875 143.660156 C 18.492188 143.789062 18.523438 143.945312 18.558594 144.125 C 18.601562 144.304688 18.628906 144.507812 18.703125 144.726562 C 18.765625 144.945312 18.835938 145.179688 18.90625 145.429688 C 18.96875 145.683594 19.09375 145.9375 19.191406 146.207031 C 19.246094 146.339844 19.300781 146.472656 19.355469 146.613281 C 19.425781 146.742188 19.492188 146.878906 19.5625 147.011719 C 19.632812 147.152344 19.707031 147.285156 19.777344 147.425781 L 20.035156 147.816406 C 20.199219 148.085938 20.40625 148.328125 20.613281 148.566406 C 20.707031 148.6875 20.824219 148.796875 20.9375 148.902344 C 21.054688 149.007812 21.164062 149.117188 21.28125 149.214844 C 21.527344 149.398438 21.753906 149.585938 22.007812 149.71875 C 22.253906 149.871094 22.503906 149.972656 22.734375 150.074219 C 22.972656 150.152344 23.191406 150.234375 23.398438 150.277344 C 23.453125 150.289062 23.507812 150.296875 23.558594 150.308594 L 21.734375 185.132812 L 27.027344 185.132812 L 25.378906 153.703125 C 25.679688 153.535156 26.046875 153.3125 26.449219 153.03125 C 26.714844 152.859375 26.984375 152.652344 27.273438 152.433594 C 27.558594 152.214844 27.84375 151.964844 28.144531 151.707031 C 28.425781 151.4375 28.738281 151.175781 29.011719 150.867188 C 29.15625 150.714844 29.296875 150.566406 29.4375 150.414062 C 29.578125 150.257812 29.707031 150.09375 29.839844 149.933594 C 30.113281 149.617188 30.355469 149.273438 30.589844 148.9375 C 30.835938 148.609375 31.027344 148.25 31.230469 147.917969 C 31.441406 147.589844 31.585938 147.238281 31.746094 146.917969 C 31.820312 146.757812 31.902344 146.605469 31.964844 146.449219 C 32.023438 146.292969 32.082031 146.140625 32.136719 145.996094 C 32.242188 145.703125 32.355469 145.441406 32.425781 145.199219 C 32.488281 144.957031 32.546875 144.742188 32.59375 144.570312 C 32.691406 144.222656 32.742188 144.019531 32.742188 144.019531 C 32.769531 143.929688 32.71875 143.835938 32.628906 143.808594 " fill-opacity="1" fill-rule="nonzero"/><path fill="#509b3a" d="M 60.144531 152.707031 C 59.75 160.039062 54.191406 165.996094 46.847656 165.996094 C 39.503906 165.996094 33.550781 160.046875 33.550781 152.707031 C 33.550781 143.824219 39.503906 123.597656 46.847656 123.597656 C 54.191406 123.597656 60.566406 144.796875 60.144531 152.707031 " fill-opacity="1" fill-rule="nonzero"/><path fill="#447b38" d="M 50.421875 162.609375 C 43.078125 162.609375 37.125 156.660156 37.125 149.324219 C 37.125 142.871094 40.261719 130.449219 44.792969 124.121094 C 38.425781 127.347656 33.550781 144.671875 33.550781 152.707031 C 33.550781 160.046875 39.503906 165.996094 46.847656 165.996094 C 51.242188 165.996094 54.996094 163.859375 57.390625 160.574219 C 55.390625 161.859375 53.015625 162.609375 50.421875 162.609375 " fill-opacity="1" fill-rule="nonzero"/><path fill="#784824" d="M 52.554688 156.585938 C 52.492188 156.5625 52.421875 156.597656 52.398438 156.664062 L 52.394531 156.675781 C 52.394531 156.675781 52.347656 156.804688 52.269531 157.035156 C 52.230469 157.148438 52.183594 157.289062 52.132812 157.449219 C 52.074219 157.605469 51.988281 157.777344 51.90625 157.96875 C 51.863281 158.0625 51.816406 158.160156 51.769531 158.265625 C 51.722656 158.363281 51.664062 158.460938 51.605469 158.566406 C 51.484375 158.769531 51.378906 158.996094 51.222656 159.203125 C 51.074219 159.414062 50.9375 159.640625 50.761719 159.847656 C 50.59375 160.058594 50.421875 160.273438 50.230469 160.46875 C 50.136719 160.566406 50.042969 160.671875 49.945312 160.769531 C 49.847656 160.859375 49.75 160.953125 49.648438 161.046875 C 49.460938 161.234375 49.242188 161.390625 49.050781 161.558594 C 48.84375 161.710938 48.648438 161.867188 48.453125 161.992188 C 48.257812 162.125 48.074219 162.246094 47.898438 162.347656 C 47.753906 162.433594 47.625 162.507812 47.503906 162.570312 L 47.210938 157.039062 C 47.203125 156.859375 47.058594 156.714844 46.875 156.703125 C 46.679688 156.695312 46.511719 156.84375 46.5 157.039062 L 46.335938 160.214844 L 46.332031 160.214844 C 46.226562 160.207031 46.109375 160.175781 45.976562 160.148438 C 45.851562 160.105469 45.710938 160.066406 45.570312 159.996094 C 45.421875 159.941406 45.285156 159.84375 45.132812 159.757812 C 45.0625 159.710938 44.996094 159.652344 44.921875 159.597656 C 44.851562 159.546875 44.777344 159.492188 44.710938 159.421875 C 44.578125 159.292969 44.4375 159.164062 44.320312 159.007812 L 44.136719 158.78125 C 44.082031 158.703125 44.027344 158.621094 43.976562 158.539062 C 43.921875 158.460938 43.871094 158.378906 43.820312 158.300781 C 43.773438 158.214844 43.730469 158.132812 43.6875 158.050781 C 43.605469 157.882812 43.507812 157.730469 43.449219 157.566406 C 43.386719 157.40625 43.324219 157.253906 43.269531 157.113281 C 43.207031 156.976562 43.171875 156.839844 43.132812 156.722656 C 43.097656 156.605469 43.066406 156.503906 43.039062 156.421875 C 42.988281 156.25 42.957031 156.152344 42.957031 156.152344 L 42.953125 156.144531 C 42.933594 156.082031 42.875 156.046875 42.8125 156.058594 C 42.746094 156.070312 42.703125 156.136719 42.714844 156.203125 C 42.714844 156.203125 42.734375 156.304688 42.769531 156.484375 C 42.789062 156.574219 42.8125 156.679688 42.835938 156.804688 C 42.863281 156.929688 42.882812 157.070312 42.933594 157.21875 C 42.976562 157.371094 43.027344 157.535156 43.074219 157.707031 C 43.117188 157.882812 43.203125 158.058594 43.273438 158.242188 C 43.3125 158.335938 43.347656 158.429688 43.386719 158.523438 C 43.433594 158.613281 43.480469 158.707031 43.53125 158.800781 C 43.578125 158.894531 43.625 158.988281 43.675781 159.085938 L 43.855469 159.355469 C 43.96875 159.539062 44.109375 159.707031 44.253906 159.871094 C 44.320312 159.960938 44.398438 160.035156 44.480469 160.105469 C 44.558594 160.179688 44.632812 160.253906 44.714844 160.320312 C 44.882812 160.445312 45.042969 160.578125 45.21875 160.667969 C 45.386719 160.773438 45.558594 160.84375 45.71875 160.914062 C 45.886719 160.972656 46.035156 161.027344 46.175781 161.054688 L 46.289062 161.078125 L 45.027344 185.132812 L 48.683594 185.132812 L 47.546875 163.421875 C 47.753906 163.304688 48.007812 163.152344 48.289062 162.957031 C 48.46875 162.839844 48.65625 162.695312 48.851562 162.542969 C 49.054688 162.394531 49.25 162.222656 49.457031 162.042969 C 49.652344 161.855469 49.867188 161.675781 50.054688 161.464844 C 50.15625 161.359375 50.253906 161.253906 50.351562 161.148438 C 50.449219 161.042969 50.535156 160.929688 50.628906 160.816406 C 50.816406 160.601562 50.980469 160.363281 51.144531 160.128906 C 51.316406 159.902344 51.445312 159.65625 51.585938 159.425781 C 51.734375 159.199219 51.832031 158.957031 51.941406 158.734375 C 51.992188 158.625 52.050781 158.519531 52.09375 158.414062 C 52.136719 158.300781 52.175781 158.199219 52.214844 158.097656 C 52.285156 157.894531 52.367188 157.714844 52.414062 157.546875 C 52.460938 157.378906 52.496094 157.234375 52.53125 157.113281 C 52.597656 156.871094 52.632812 156.734375 52.632812 156.734375 C 52.652344 156.671875 52.617188 156.605469 52.554688 156.585938 " fill-opacity="1" fill-rule="nonzero"/><path fill="#64a336" d="M 176.53125 134.1875 C 175.917969 145.699219 167.179688 155.0625 155.640625 155.0625 C 144.101562 155.0625 134.746094 145.714844 134.746094 134.1875 C 134.746094 120.222656 144.101562 88.441406 155.640625 88.441406 C 167.179688 88.441406 177.195312 121.75 176.53125 134.1875 " fill-opacity="1" fill-rule="nonzero"/><path fill="#558235" d="M 161.257812 149.738281 C 149.71875 149.738281 140.367188 140.390625 140.367188 128.863281 C 140.367188 118.726562 145.296875 99.207031 152.410156 89.265625 C 142.40625 94.335938 134.746094 121.554688 134.746094 134.1875 C 134.746094 145.714844 144.101562 155.0625 155.640625 155.0625 C 162.546875 155.0625 168.449219 151.707031 172.207031 146.546875 C 169.0625 148.566406 165.335938 149.738281 161.257812 149.738281 " fill-opacity="1" fill-rule="nonzero"/><path fill="#784824" d="M 164.609375 140.277344 C 164.507812 140.242188 164.398438 140.296875 164.363281 140.398438 L 164.355469 140.414062 C 164.355469 140.414062 164.285156 140.621094 164.164062 140.984375 C 164.101562 141.164062 164.027344 141.382812 163.941406 141.632812 C 163.855469 141.882812 163.714844 142.148438 163.585938 142.449219 C 163.519531 142.59375 163.449219 142.75 163.378906 142.910156 C 163.304688 143.070312 163.207031 143.226562 163.117188 143.386719 C 162.929688 143.707031 162.757812 144.0625 162.519531 144.390625 C 162.285156 144.722656 162.066406 145.078125 161.789062 145.402344 C 161.527344 145.738281 161.253906 146.074219 160.953125 146.378906 C 160.804688 146.535156 160.660156 146.695312 160.511719 146.847656 C 160.355469 146.996094 160.199219 147.140625 160.046875 147.285156 C 159.742188 147.585938 159.402344 147.828125 159.101562 148.09375 C 158.777344 148.332031 158.46875 148.570312 158.164062 148.777344 C 157.855469 148.980469 157.566406 149.175781 157.289062 149.332031 C 157.070312 149.464844 156.863281 149.582031 156.671875 149.683594 L 156.214844 140.992188 C 156.199219 140.710938 155.972656 140.476562 155.683594 140.464844 C 155.375 140.445312 155.113281 140.683594 155.09375 140.992188 L 154.835938 145.980469 L 154.828125 145.980469 C 154.664062 145.96875 154.480469 145.917969 154.273438 145.875 C 154.078125 145.804688 153.851562 145.746094 153.632812 145.636719 C 153.402344 145.546875 153.1875 145.398438 152.949219 145.265625 C 152.835938 145.1875 152.730469 145.097656 152.613281 145.011719 C 152.5 144.929688 152.382812 144.839844 152.28125 144.734375 C 152.070312 144.53125 151.851562 144.328125 151.667969 144.082031 L 151.378906 143.730469 C 151.296875 143.601562 151.210938 143.476562 151.128906 143.347656 C 151.046875 143.21875 150.960938 143.09375 150.882812 142.96875 C 150.8125 142.835938 150.746094 142.707031 150.675781 142.574219 C 150.546875 142.3125 150.394531 142.070312 150.304688 141.816406 C 150.199219 141.566406 150.105469 141.328125 150.015625 141.105469 C 149.917969 140.890625 149.863281 140.679688 149.804688 140.492188 C 149.746094 140.308594 149.699219 140.148438 149.65625 140.015625 C 149.570312 139.75 149.523438 139.597656 149.523438 139.597656 L 149.519531 139.582031 C 149.492188 139.488281 149.398438 139.429688 149.296875 139.449219 C 149.195312 139.46875 149.125 139.574219 149.148438 139.675781 C 149.148438 139.675781 149.179688 139.835938 149.234375 140.117188 C 149.265625 140.257812 149.300781 140.429688 149.339844 140.621094 C 149.378906 140.816406 149.414062 141.039062 149.492188 141.273438 C 149.5625 141.511719 149.636719 141.769531 149.714844 142.039062 C 149.78125 142.316406 149.917969 142.589844 150.023438 142.878906 C 150.082031 143.023438 150.140625 143.171875 150.199219 143.320312 C 150.273438 143.464844 150.351562 143.613281 150.425781 143.757812 C 150.503906 143.90625 150.578125 144.050781 150.65625 144.203125 L 150.941406 144.628906 C 151.117188 144.921875 151.34375 145.179688 151.5625 145.441406 C 151.667969 145.578125 151.792969 145.695312 151.917969 145.808594 C 152.042969 145.921875 152.160156 146.042969 152.289062 146.148438 C 152.554688 146.34375 152.804688 146.550781 153.082031 146.695312 C 153.34375 146.859375 153.621094 146.96875 153.867188 147.078125 C 154.128906 147.167969 154.367188 147.253906 154.585938 147.296875 C 154.648438 147.316406 154.707031 147.320312 154.765625 147.335938 L 152.78125 185.132812 L 158.527344 185.132812 L 156.738281 151.019531 C 157.0625 150.835938 157.460938 150.59375 157.902344 150.292969 C 158.1875 150.101562 158.484375 149.878906 158.792969 149.640625 C 159.105469 149.402344 159.414062 149.132812 159.742188 148.855469 C 160.046875 148.554688 160.386719 148.273438 160.683594 147.941406 C 160.835938 147.777344 160.992188 147.613281 161.144531 147.449219 C 161.296875 147.28125 161.4375 147.097656 161.582031 146.925781 C 161.878906 146.585938 162.140625 146.210938 162.390625 145.847656 C 162.660156 145.488281 162.867188 145.101562 163.085938 144.738281 C 163.320312 144.382812 163.472656 144 163.648438 143.65625 C 163.726562 143.480469 163.820312 143.316406 163.886719 143.144531 C 163.949219 142.972656 164.015625 142.8125 164.074219 142.652344 C 164.183594 142.335938 164.3125 142.050781 164.386719 141.789062 C 164.457031 141.523438 164.519531 141.292969 164.570312 141.105469 C 164.671875 140.726562 164.734375 140.507812 164.734375 140.507812 C 164.757812 140.414062 164.703125 140.308594 164.609375 140.277344 " fill-opacity="1" fill-rule="nonzero"/><path fill="#94d32e" d="M 205.894531 169.703125 C 205.683594 173.648438 202.691406 176.855469 198.738281 176.855469 C 194.78125 176.855469 191.574219 173.65625 191.574219 169.703125 C 191.574219 164.917969 194.78125 154.027344 198.738281 154.027344 C 202.691406 154.027344 206.125 165.441406 205.894531 169.703125 " fill-opacity="1" fill-rule="nonzero"/><path fill="#83af30" d="M 200.660156 175.035156 C 196.707031 175.035156 193.5 171.828125 193.5 167.878906 C 193.5 164.402344 195.191406 157.714844 197.628906 154.308594 C 194.199219 156.042969 191.574219 165.371094 191.574219 169.703125 C 191.574219 173.65625 194.78125 176.855469 198.738281 176.855469 C 201.101562 176.855469 203.125 175.707031 204.414062 173.9375 C 203.335938 174.632812 202.058594 175.035156 200.660156 175.035156 " fill-opacity="1" fill-rule="nonzero"/><path fill="#784824" d="M 201.808594 171.792969 L 201.726562 171.832031 L 201.722656 171.839844 C 201.722656 171.839844 201.699219 171.910156 201.65625 172.03125 C 201.636719 172.09375 201.609375 172.167969 201.582031 172.253906 C 201.550781 172.339844 201.503906 172.433594 201.460938 172.535156 C 201.4375 172.585938 201.410156 172.640625 201.386719 172.691406 C 201.363281 172.746094 201.328125 172.800781 201.300781 172.855469 C 201.234375 172.96875 201.175781 173.089844 201.09375 173.199219 C 201.015625 173.3125 200.941406 173.4375 200.84375 173.546875 C 200.753906 173.660156 200.660156 173.777344 200.558594 173.882812 C 200.503906 173.933594 200.457031 173.992188 200.402344 174.042969 C 200.351562 174.09375 200.296875 174.144531 200.246094 174.191406 C 200.144531 174.292969 200.027344 174.378906 199.921875 174.46875 C 199.8125 174.550781 199.707031 174.632812 199.601562 174.703125 C 199.496094 174.773438 199.394531 174.839844 199.300781 174.894531 C 199.226562 174.9375 199.15625 174.980469 199.089844 175.011719 L 198.933594 172.035156 C 198.929688 171.941406 198.847656 171.859375 198.75 171.855469 C 198.644531 171.847656 198.554688 171.929688 198.550781 172.035156 L 198.460938 173.746094 L 198.457031 173.746094 C 198.402344 173.742188 198.335938 173.722656 198.265625 173.710938 C 198.199219 173.683594 198.121094 173.664062 198.046875 173.625 C 197.96875 173.597656 197.894531 173.546875 197.816406 173.5 L 197.699219 173.414062 L 197.585938 173.316406 C 197.511719 173.25 197.4375 173.179688 197.375 173.09375 L 197.277344 172.972656 L 197.1875 172.84375 L 197.105469 172.714844 L 197.035156 172.578125 C 196.992188 172.488281 196.9375 172.40625 196.90625 172.316406 C 196.871094 172.234375 196.839844 172.152344 196.808594 172.074219 C 196.773438 172 196.757812 171.929688 196.738281 171.867188 C 196.714844 171.800781 196.699219 171.746094 196.683594 171.699219 C 196.65625 171.609375 196.640625 171.558594 196.640625 171.558594 L 196.636719 171.550781 L 196.5625 171.507812 L 196.507812 171.585938 C 196.507812 171.585938 196.523438 171.640625 196.542969 171.734375 C 196.550781 171.78125 196.5625 171.839844 196.578125 171.910156 C 196.589844 171.976562 196.601562 172.050781 196.628906 172.132812 C 196.652344 172.214844 196.679688 172.300781 196.707031 172.394531 C 196.726562 172.488281 196.773438 172.582031 196.8125 172.683594 L 196.871094 172.835938 L 196.949219 172.984375 L 197.027344 173.136719 L 197.125 173.28125 C 197.183594 173.382812 197.261719 173.472656 197.339844 173.5625 L 197.460938 173.6875 L 197.585938 173.800781 C 197.679688 173.871094 197.765625 173.941406 197.859375 173.988281 C 197.949219 174.046875 198.042969 174.082031 198.128906 174.121094 C 198.21875 174.152344 198.296875 174.183594 198.375 174.199219 L 198.433594 174.207031 L 197.757812 187.164062 L 199.726562 187.164062 L 199.113281 175.472656 C 199.222656 175.410156 199.359375 175.324219 199.511719 175.222656 C 199.609375 175.15625 199.707031 175.082031 199.816406 175 C 199.921875 174.917969 200.03125 174.824219 200.140625 174.730469 C 200.246094 174.625 200.363281 174.53125 200.464844 174.414062 C 200.515625 174.363281 200.566406 174.304688 200.621094 174.25 C 200.675781 174.191406 200.722656 174.128906 200.773438 174.070312 C 200.875 173.953125 200.964844 173.824219 201.050781 173.699219 C 201.140625 173.578125 201.214844 173.445312 201.289062 173.320312 C 201.367188 173.195312 201.421875 173.066406 201.480469 172.949219 C 201.507812 172.890625 201.539062 172.832031 201.5625 172.773438 C 201.582031 172.714844 201.605469 172.660156 201.625 172.601562 C 201.667969 172.496094 201.707031 172.398438 201.734375 172.308594 C 201.757812 172.21875 201.777344 172.136719 201.796875 172.074219 C 201.832031 171.945312 201.851562 171.871094 201.851562 171.871094 L 201.808594 171.792969 " fill-opacity="1" fill-rule="nonzero"/><path fill="#509b3a" d="M 195.558594 149.941406 C 195.136719 157.894531 189.097656 164.359375 181.125 164.359375 C 173.15625 164.359375 166.695312 157.902344 166.695312 149.941406 C 166.695312 140.296875 173.15625 118.339844 181.125 118.339844 C 189.097656 118.339844 196.019531 141.351562 195.558594 149.941406 " fill-opacity="1" fill-rule="nonzero"/><path fill="#447b38" d="M 185.011719 160.683594 C 177.039062 160.683594 170.578125 154.226562 170.578125 146.261719 C 170.578125 139.261719 173.980469 125.777344 178.898438 118.910156 C 171.984375 122.414062 166.695312 141.210938 166.695312 149.941406 C 166.695312 157.902344 173.15625 164.359375 181.125 164.359375 C 185.898438 164.359375 189.976562 162.042969 192.570312 158.476562 C 190.398438 159.875 187.824219 160.683594 185.011719 160.683594 " fill-opacity="1" fill-rule="nonzero"/><path fill="#784824" d="M 187.324219 154.148438 C 187.253906 154.121094 187.175781 154.160156 187.152344 154.230469 L 187.148438 154.242188 C 187.148438 154.242188 187.101562 154.386719 187.015625 154.636719 C 186.972656 154.757812 186.921875 154.910156 186.863281 155.085938 C 186.804688 155.253906 186.707031 155.441406 186.617188 155.648438 C 186.570312 155.75 186.523438 155.855469 186.476562 155.96875 C 186.421875 156.078125 186.355469 156.183594 186.292969 156.296875 C 186.164062 156.515625 186.046875 156.761719 185.878906 156.988281 C 185.714844 157.21875 185.566406 157.464844 185.375 157.6875 C 185.191406 157.917969 185.007812 158.152344 184.796875 158.363281 C 184.695312 158.46875 184.597656 158.582031 184.492188 158.6875 C 184.386719 158.789062 184.277344 158.890625 184.171875 158.988281 C 183.960938 159.195312 183.726562 159.367188 183.519531 159.546875 C 183.292969 159.710938 183.085938 159.878906 182.871094 160.015625 C 182.660156 160.160156 182.457031 160.292969 182.269531 160.402344 C 182.113281 160.492188 181.972656 160.574219 181.839844 160.644531 L 181.523438 154.640625 C 181.511719 154.445312 181.359375 154.285156 181.160156 154.273438 C 180.945312 154.265625 180.765625 154.429688 180.75 154.640625 L 180.570312 158.089844 C 180.453125 158.078125 180.324219 158.042969 180.183594 158.015625 C 180.046875 157.96875 179.894531 157.925781 179.742188 157.851562 C 179.582031 157.789062 179.433594 157.683594 179.269531 157.589844 C 179.191406 157.539062 179.117188 157.476562 179.039062 157.417969 C 178.960938 157.359375 178.878906 157.300781 178.808594 157.226562 C 178.664062 157.085938 178.511719 156.945312 178.382812 156.777344 L 178.183594 156.53125 C 178.125 156.445312 178.070312 156.355469 178.011719 156.269531 C 177.953125 156.183594 177.894531 156.09375 177.839844 156.007812 C 177.792969 155.917969 177.746094 155.824219 177.699219 155.738281 C 177.609375 155.554688 177.503906 155.386719 177.441406 155.210938 C 177.371094 155.039062 177.304688 154.875 177.242188 154.71875 C 177.175781 154.570312 177.140625 154.425781 177.097656 154.296875 C 177.058594 154.167969 177.023438 154.058594 176.992188 153.96875 C 176.933594 153.78125 176.902344 153.675781 176.902344 153.675781 L 176.902344 153.667969 C 176.878906 153.601562 176.8125 153.5625 176.746094 153.574219 C 176.675781 153.589844 176.628906 153.660156 176.644531 153.734375 C 176.644531 153.734375 176.664062 153.84375 176.703125 154.035156 C 176.722656 154.132812 176.75 154.25 176.777344 154.386719 C 176.804688 154.519531 176.828125 154.675781 176.878906 154.835938 C 176.925781 155 176.976562 155.175781 177.035156 155.367188 C 177.078125 155.558594 177.175781 155.742188 177.25 155.945312 C 177.289062 156.042969 177.328125 156.148438 177.371094 156.25 C 177.421875 156.351562 177.472656 156.449219 177.527344 156.554688 C 177.578125 156.652344 177.632812 156.757812 177.6875 156.859375 L 177.878906 157.152344 C 178.003906 157.355469 178.15625 157.535156 178.3125 157.714844 C 178.382812 157.808594 178.46875 157.886719 178.558594 157.96875 C 178.644531 158.046875 178.722656 158.128906 178.8125 158.203125 C 178.996094 158.339844 179.167969 158.480469 179.359375 158.578125 C 179.539062 158.691406 179.730469 158.769531 179.902344 158.847656 C 180.082031 158.90625 180.246094 158.96875 180.398438 158.996094 L 180.523438 159.023438 L 179.152344 185.132812 L 183.121094 185.132812 L 181.886719 161.566406 C 182.109375 161.441406 182.382812 161.273438 182.691406 161.066406 C 182.886719 160.933594 183.09375 160.78125 183.308594 160.617188 C 183.523438 160.453125 183.738281 160.261719 183.960938 160.070312 C 184.171875 159.867188 184.40625 159.671875 184.613281 159.441406 C 184.71875 159.328125 184.824219 159.214844 184.929688 159.101562 C 185.035156 158.984375 185.132812 158.863281 185.230469 158.742188 C 185.4375 158.503906 185.617188 158.246094 185.792969 157.992188 C 185.976562 157.75 186.121094 157.480469 186.273438 157.230469 C 186.429688 156.980469 186.539062 156.71875 186.660156 156.480469 C 186.714844 156.359375 186.777344 156.246094 186.824219 156.128906 C 186.867188 156.011719 186.910156 155.894531 186.953125 155.789062 C 187.03125 155.566406 187.117188 155.371094 187.167969 155.191406 C 187.21875 155.007812 187.261719 154.847656 187.296875 154.71875 C 187.367188 154.457031 187.410156 154.308594 187.410156 154.308594 C 187.425781 154.242188 187.390625 154.167969 187.324219 154.148438 " fill-opacity="1" fill-rule="nonzero"/><path fill="#7dcbad" d="M 215.382812 189.347656 C 215.382812 190.246094 214.652344 190.976562 213.75 190.976562 L 6.804688 190.976562 C 5.90625 190.976562 5.175781 190.246094 5.175781 189.347656 L 5.175781 185.269531 C 5.175781 184.367188 5.90625 183.640625 6.804688 183.640625 L 213.75 183.640625 C 214.652344 183.640625 215.382812 184.367188 215.382812 185.269531 L 215.382812 189.347656 " fill-opacity="1" fill-rule="nonzero"/><g clip-path="url(#id4)"><path fill="#7abb38" d="M 160.242188 221.683594 L 34.398438 221.683594 C 33.425781 221.683594 32.640625 220.34375 32.640625 218.691406 C 32.640625 217.042969 33.425781 215.707031 34.398438 215.707031 L 160.242188 215.707031 C 161.214844 215.707031 162 217.042969 162 218.691406 C 162 220.34375 161.214844 221.683594 160.242188 221.683594 " fill-opacity="1" fill-rule="nonzero"/></g><path fill="#5cac92" d="M 5.175781 187.308594 L 5.175781 189.347656 C 5.175781 190.246094 5.90625 190.976562 6.804688 190.976562 L 213.75 190.976562 C 214.652344 190.976562 215.382812 190.246094 215.382812 189.347656 L 215.382812 187.308594 L 5.175781 187.308594 " fill-opacity="1" fill-rule="nonzero"/><path fill="#339c50" d="M 719.777344 96 C 720.347656 92.878906 733.800781 79.386719 733.800781 79.386719 C 726.953125 76.824219 718.351562 78.734375 712.847656 84.230469 L 705.769531 91.507812 C 699.5625 97.703125 696.988281 108.769531 701.230469 113 C 702.964844 114.734375 645.984375 171.402344 644.246094 169.671875 C 637.960938 163.394531 628.917969 168.007812 622.71875 174.203125 L 615.226562 181.660156 C 609.714844 187.160156 607.800781 195.746094 610.371094 202.582031 C 610.371094 202.582031 623.34375 187.859375 626.476562 187.285156 C 628.601562 186.894531 641.195312 199.535156 640.726562 201.761719 C 640.21875 204.1875 627.023438 218.617188 627.023438 218.617188 C 634.023438 221.574219 641.722656 219.503906 647.433594 213.804688 L 654.921875 206.34375 C 661.140625 200.136719 663.761719 188.074219 659.457031 183.777344 C 658.210938 182.535156 712.617188 128.332031 714.175781 129.171875 C 720.363281 132.476562 731.753906 129.855469 737.972656 123.648438 L 745.050781 116.378906 C 750.757812 110.679688 752.832031 102.996094 749.871094 96.007812 C 749.871094 96.007812 736.707031 109.714844 734.28125 110.222656 C 732.046875 110.699219 719.382812 98.121094 719.777344 96 " fill-opacity="1" fill-rule="nonzero"/><path fill="#dedddd" d="M 637.832031 89.878906 L 627.882812 100.691406 L 635.492188 106.003906 L 636.308594 105.121094 L 700.867188 164.289062 L 707.367188 157.226562 L 642.804688 98.058594 L 643.617188 97.175781 L 637.832031 89.878906 " fill-opacity="1" fill-rule="nonzero"/><path fill="#f9ad30" d="M 764.632812 194.210938 C 767.804688 197.117188 768.015625 202.046875 765.105469 205.214844 L 753.855469 217.4375 C 750.945312 220.609375 746.003906 220.820312 742.832031 217.90625 L 692.125 171.433594 C 688.945312 168.527344 688.734375 163.597656 691.65625 160.429688 L 702.894531 148.207031 C 705.8125 145.035156 710.753906 144.828125 713.925781 147.738281 L 764.632812 194.210938 " fill-opacity="1" fill-rule="nonzero"/><path fill="#f69031" d="M 748.859375 207.179688 C 749.742188 207.992188 749.800781 209.371094 748.984375 210.253906 C 748.179688 211.136719 746.796875 211.199219 745.914062 210.386719 L 699.375 167.730469 C 698.484375 166.917969 698.425781 165.539062 699.238281 164.65625 C 700.054688 163.777344 701.433594 163.71875 702.316406 164.523438 L 748.859375 207.179688 " fill-opacity="1" fill-rule="nonzero"/><path fill="#f69031" d="M 757.386719 197.917969 C 758.269531 198.730469 758.324219 200.097656 757.511719 200.988281 C 756.703125 201.871094 755.324219 201.925781 754.441406 201.113281 L 707.894531 158.464844 C 707.007812 157.644531 706.953125 156.273438 707.765625 155.390625 C 708.578125 154.511719 709.953125 154.453125 710.84375 155.257812 L 757.386719 197.917969 " fill-opacity="1" fill-rule="nonzero"/><path fill="#000000" d="M 231.566406 107.789062 L 595.597656 107.789062 C 600.988281 107.789062 606.15625 109.929688 609.964844 113.738281 C 613.777344 117.542969 615.917969 122.707031 615.917969 128.09375 L 615.917969 168.699219 C 615.917969 174.082031 613.777344 179.246094 609.964844 183.054688 C 606.15625 186.863281 600.988281 189 595.597656 189 L 231.566406 189 C 220.34375 189 211.246094 179.910156 211.246094 168.699219 L 211.246094 128.09375 C 211.246094 116.878906 220.34375 107.789062 231.566406 107.789062 " fill-opacity="1" fill-rule="nonzero"/><g fill="#ffffff" fill-opacity="1"><g transform="translate(231.735992, 168.271004)"><g><path d="M 2.496094 -33.46875 L 2.496094 0 L 10.390625 0 L 10.390625 -12.789062 L 35.964844 -12.789062 L 35.964844 -20.679688 L 10.390625 -20.679688 L 10.390625 -25.574219 L 35.964844 -25.574219 L 35.964844 -33.46875 Z M 2.496094 -33.46875 "/></g></g></g><g fill="#ffffff" fill-opacity="1"><g transform="translate(270.191341, 168.271004)"><g><path d="M 35.964844 0 L 35.964844 -7.890625 L 10.390625 -7.890625 L 10.390625 -33.46875 L 2.496094 -33.46875 L 2.496094 0 Z M 35.964844 0 "/></g></g></g><g fill="#ffffff" fill-opacity="1"><g transform="translate(308.646691, 168.271004)"><g><path d="M 10.390625 -25.574219 L 28.074219 -25.574219 L 28.074219 -7.890625 L 10.390625 -7.890625 Z M 2.496094 0 L 35.964844 0 L 35.964844 -33.46875 L 2.496094 -33.46875 Z M 2.496094 0 "/></g></g></g><g fill="#ffffff" fill-opacity="1"><g transform="translate(347.102041, 168.271004)"><g><path d="M 2.496094 -33.46875 L 2.496094 0 L 10.390625 0 L 10.390625 -6.394531 L 20.03125 -6.394531 L 26.273438 0 L 35.863281 0 L 29.519531 -6.394531 L 35.964844 -6.394531 L 35.964844 -33.46875 Z M 10.390625 -14.285156 L 10.390625 -25.574219 L 28.074219 -25.574219 L 28.074219 -14.285156 Z M 10.390625 -14.285156 "/></g></g></g><g fill="#ffffff" fill-opacity="1"><g transform="translate(385.557391, 168.271004)"><g><path d="M 10.390625 -23.175781 L 2.496094 -23.175781 L 2.496094 0 L 10.390625 0 Z M 2.496094 -25.574219 L 10.390625 -25.574219 L 10.390625 -33.46875 L 2.496094 -33.46875 Z M 2.496094 -25.574219 "/></g></g></g><g fill="#ffffff" fill-opacity="1"><g transform="translate(398.44243, 168.271004)"><g><path d="M 28.074219 -14.285156 L 10.390625 -14.285156 L 10.390625 -25.574219 L 28.074219 -25.574219 Z M 2.496094 0 L 10.390625 0 L 10.390625 -6.394531 L 35.964844 -6.394531 L 35.964844 -33.46875 L 2.496094 -33.46875 Z M 2.496094 0 "/></g></g></g><g fill="#ffffff" fill-opacity="1"><g transform="translate(436.89778, 168.271004)"><g><path d="M 35.964844 -33.46875 L 2.496094 -33.46875 L 2.496094 0 L 10.390625 0 L 10.390625 -6.394531 L 28.074219 -6.394531 L 28.074219 0 L 35.964844 0 Z M 10.390625 -14.285156 L 10.390625 -25.574219 L 28.074219 -25.574219 L 28.074219 -14.285156 Z M 10.390625 -14.285156 "/></g></g></g><g fill="#ffffff" fill-opacity="1"><g transform="translate(475.35313, 168.271004)"><g/></g></g><g fill="#ffffff" fill-opacity="1"><g transform="translate(505.318337, 168.271004)"><g><path d="M 35.964844 0 L 35.964844 -20.628906 L 29.519531 -20.628906 L 35.765625 -33.46875 L 2.496094 -33.46875 L 2.496094 -25.574219 L 22.128906 -25.574219 L 19.628906 -20.679688 L 2.496094 -20.679688 L 2.496094 -12.789062 L 19.230469 -12.789062 L 19.230469 -12.738281 L 28.074219 -12.738281 L 28.074219 -7.890625 L 2.496094 -7.890625 L 2.496094 0 Z M 35.964844 0 "/></g></g></g><g fill="#ffffff" fill-opacity="1"><g transform="translate(543.773687, 168.271004)"><g><path d="M 2.496094 0 L 10.390625 0 L 10.390625 -7.890625 L 2.496094 -7.890625 Z M 2.496094 0 "/></g></g></g><g fill="#ffffff" fill-opacity="1"><g transform="translate(556.658727, 168.271004)"><g><path d="M 2.496094 0 L 35.964844 0 L 35.964844 -33.46875 L 2.496094 -33.46875 Z M 10.390625 -7.890625 L 10.390625 -25.574219 L 28.074219 -25.574219 L 28.074219 -7.890625 Z M 10.390625 -7.890625 "/></g></g></g></svg>